<?xml version="1.0" encoding="utf-8"?>
<!-- Generator: Adobe Illustrator 23.1.0, SVG Export Plug-In . SVG Version: 6.00 Build 0)  -->
<svg version="1.1" id="Capa_1" xmlns="http://www.w3.org/2000/svg" xmlns:xlink="http://www.w3.org/1999/xlink" x="0px" y="0px"
	 viewBox="0 0 1200 1200" enable-background="new 0 0 1200 1200" xml:space="preserve">
<g>
	<g>
		<path fill="#F0B81D" d="M201.989,775.656c-3.836-9.89-7.43-52.121-29.48-32.508c0.302,14.944,19.062,35.911,11.833,56.815
			c-3.721,5.321-11.332,12.064-21.338,14.588c-33.535,3.262-40.671-43.891-55.147-73.902
			c-12.028-32.251-32.51-66.136-37.788-100.858c0.143-14.822,10.449-28.871,26.095-35.616c35.189-19.363,40.333,31.383,60.88,35.812
			c1.008-0.347,1.754-1.071,2.222-2.181c1.673-33.967-30.66-63.629-69.338-45.271c-7.617,4.187-24.157,6.41-28.369,17.712
			c-6.007,3.576-9.623,12.447-11.468,22.607c-1.562,30.45,17.547,58.628,29.648,90.715c14.146,29.974,21.378,61.154,40.941,88.404
			c3.081,2.43-0.126,1.14,7.589,7.714c1.821,0.997,2.444,3.302,6.029,3.281c0.304,0.12,0.504,0.28,0.59,0.482
			c6.9,9.039,24.137,7.536,37.092,3.46c3.629-1.343,12.618-5.667,17.092-10.073c3.792-3.172,11.41-10.787,14.719-19.225
			C205.385,791.894,204.3,786.956,201.989,775.656z"/>
		<path fill="#F0B81D" d="M322.47,698.672c-11.975-48.077-14.131-107.386-50.634-146.514c-7.352-7.875-29.047-7.006-38.761-5.898
			c-27.269,3.11-45.944,19.544-49.238,47.836c-4.342,37.284,32.827,178.433,72.049,192.2c8.854,3.108,18.972,5.769,28.594,3.2
			c20.025-5.352,32.207-23.31,35.996-42.45C323.402,732.263,326.689,717.296,322.47,698.672z M303.917,730.317
			c-3.424,13.119,1.447,42.12-21.209,42.669c-12.133,0.294-20.21-3.555-28.023-12.972c-24.891-30.001-85.429-201.64-16.646-199.705
			c3.231,0.621,10.571,0.962,15.93,3.854c27.901,32.291,34.359,90.314,48.206,134.421
			C304.279,705.568,304.146,718.979,303.917,730.317z"/>
		<path fill="#F0B81D" d="M374.52,768.05c1.328-0.258,2.663-1.082,4.013-2.48c13.574,10.484-33.223-181.938-34.767-188.947
			c4.404,3.987,9.646,10.513,15.849,17.565c21.771,24.75,42.88,51.147,65.914,74.528c30.604,17.499,18.125,57.242,36.16,85.446
			c2.11,0.58,11.892-1.887,14.13-6.974c0.527-4.145-1.749-13.168-2.936-21.306c-16.394-72.627-15.569-158.169-41.148-229.271
			c-12.853-3.85-25.707,1.683-16.195,20.616c9.865,39.676,16.062,87.007,24.158,129.644c0.416,3.333,0.625,5,1.04,8.334
			c-1.73-1.815-2.599-2.721-4.34-4.531c-25.597-32.327-55.441-65.625-84.501-99.806c-9.824-8.503-18.526-35.575-38.117-26.712
			c-2.839,1.269-8.569,2.882-5.217,9.821C334.065,584.984,355.646,775.041,374.52,768.05z"/>
		<path fill="#F0B81D" d="M590.302,717.775c5.177-20.03,16.641-70.875-22.296-63.297c-40.47-2.238-35.368,18.632,5.821,13.31
			c0.889,4.187,0.915,7.051,3.546,14.377c2.016,32.237-21.537,71.18-54.627,41.869c-14.059-51.124-27.76-128.809-12.427-185.315
			c35.68-47.256,73.07-13.443,68.789,41.302c2.832,0.898,4.248,1.352,7.07,2.265c8.656,5.443,14.002-3.608,13.852-17.785
			c-0.789-76.364-90.738-77.714-111.73-28.422c-12.272,36.947-4.001,78.848-1.756,116.946c8.703,28.653,5.833,77.104,35.351,90.248
			c2.145,0.721,4.252,2.796,10.557,3.394c1.026-0.056,0.624-0.02,3.795,0.127C553.99,750.581,583,741.317,590.302,717.775z"/>
		<path fill="#F0B81D" d="M666.96,679.783c0.975,1.639,1.761,3.123,2.729,3.178c1.397,8.397,7.321,23.969,13.745,37.214
			c-1.738,10.648,23.068,51.789,27.443,20.11c-0.466-0.473-0.442-0.948-2.424-3.936c-4.545-21.522-18.516-51.645-27.894-75.611
			c49.003-20.076,50.537-104.123,29.373-141.254c-19.866-23.29-82.775-29.933-88.939-15.356c5.195,76.274,0.87,159.331,8.075,237.67
			c30.491,20.103,11.768-59.651,17.693-75.72c3.777,0.073,5.823-0.446,13.594-0.087C662.171,668.281,664.031,674.513,666.96,679.783
			z M653.565,652.906c-2.073-0.088-3.111-0.131-5.185-0.211c1.242-44.226-5.676-93.994-3.587-141.95
			c1.76-0.9,10.465,2.496,14.864-0.452C719.36,509.664,710.752,653.127,653.565,652.906z"/>
		<path fill="#F0B81D" d="M862.895,542.953c-12.326-23.951-59.83-37.443-85.747-28.839c-3.962-0.567-6.907,1.068-14.066,6.06
			c-18.777,5.01-32.271,233.938-19.91,230.364c1.089-0.977,1.261,1.959,6.335-3.27c5.667-17.742,6.026-37.879,9.367-59.071
			c15.469-2.451,36.453,1.926,54.61,2.478c1.669,1.885,6.959,3.273,13.984,4.899c-1.084,16.42-24.483,95.417,8.044,66.921
			c-0.196-0.415,1.016-1.527,0.321-5.069C837.251,710.914,875.31,599.694,862.895,542.953z M845.838,573.453
			c-3.372,29.519-11.482,73.098-15.614,107.263c-18.252-5.224-47.204-10.516-71.029-9.409
			c-0.361-41.681,7.211-96.681,19.384-139.056c11.599-8.996,70.647-6.691,64.52,18.699c1.085,0.432,0.803,1.005,3.33-0.089
			C847.275,555.89,847.102,563.141,845.838,573.453z"/>
		<path fill="#F0B81D" d="M1002.478,567.601c5.959,1.677,16.537,7.048,24.408,5.724c26.246-25.996-205.981-64.952-92.235-25.777
			c9.142,2.502,13.706,3.792,22.81,6.448c-2.843,12.866-4.273,19.297-7.138,32.157c-7.845,38.339-24.23,82.955-32.271,123.132
			c-8.219,14.365-9.748,34.174-15.642,55.196c-1.204,10.16-11.545,22.845,10.103,23.304c1.613-0.114,2.419-0.169,4.035-0.276
			c0.725-0.025,1.182-0.366,1.364-1.014c1.469-6.285,2.203-9.427,3.664-15.713c17.535-66.469,43.478-139.482,58.507-209.631
			C986.312,562.89,993.921,565.059,1002.478,567.601z"/>
		<path fill="#F0B81D" d="M1149.36,631.845c-9.623-38.989-68.366-50.562-95.559-23.948c-17.767,17.389-22.297,44.97-22.454,68.756
			c-0.174,26.187,4.567,54.448,17.045,77.741c4.778,8.924,18.39,49.433-1.088,52.519c-46.315,7.338-46.961-23.55-32.744-62.452
			c-30.524-18.32-36.595,51.991-18.173,65.123c20.913,24.278,70.88,17.762,79.514-6.455c7.334-22.945-13.511-61.155-19.831-86.314
			c-8.093-31.375-7.034-96.154,32.936-109c64.302,3.34,30.77,41.847,28.625,75.172
			C1137.805,703.664,1153.395,648.193,1149.36,631.845z"/>
	</g>
	<g>
		<path fill="#F9E465" d="M519.466,812.238c-36.806-4.657-163.995,10.095-150.47,30.051c21.65,3.441,48.956-10.321,72.564-10.861
			C457.355,825.892,547.21,829.355,519.466,812.238z"/>
		<path fill="#F9E465" d="M810.391,837.038c-42.245-21.284-137.1-35.125-147.941-19.911c1.174,6.486,4.138,6.195,14.519,7.154
			c28.083,2.796,47.337,4.545,74.735,9.669C770.17,834.758,825.709,860.224,810.391,837.038z"/>
		<path fill="#F9E465" d="M184.671,482.671c0.116-0.038,17.838-5.922,18.778-6.234c70.182-21.941,146.431-38.11,220.424-49.169
			c4.779-0.64,14.106-1.876,19.459-2.578l9.741-1.072c12.232-4.371,38.411,2.9,44.382-8.856
			c-4.551-14.034-68.165-0.624-75.422-1.962C387.672,412.412,132.543,468.336,184.671,482.671z"/>
		<path fill="#F9E465" d="M700.105,419.68c84.499,7.329,170.639,27.186,254.167,48.901l9.201,2.656
			c74.135,25.924,41.321-5.284-2.514-15.096C926.763,440.466,656.902,384.001,700.105,419.68z"/>
		<path fill="#F9E465" d="M546.738,420.476c23.745,1.09,33.358,5.489,38.016,15.504c5.882,15.736,15.875,59.355,25.821,11.13
			c2.001-7.134,4.034-11.129,7.757-15.452c6.037-6.451,15.835-9.701,34.747-15.141c20.774-16.726-38.361-12.215-38.018-23.937
			c-10.992-6.87-3.181-32.227-16.735-39.34c-9.422,0.253-6.406,22.67-10.779,29.573
			C583.078,410.948,521.446,403.006,546.738,420.476z M598.479,389.862c4.44,10.239,11.937,18.487,25.295,23.034
			c-12.973,5.865-19.325,12.973-23.989,26.397c-4.465-12.976-9.688-21.672-23.179-26.685
			C586.467,407.901,593.724,400.918,598.479,389.862z"/>
		<path fill="#F9E465" d="M623.326,804.925c-6.143-8.037-11.098-12.314-23.881-13.322c-3.069-0.09-6.212,0.254-9.256,1.247
			c-11.053,3.238-24.179,18.639-14.102,32.66c2.673,2.745,7.227,6.77,14.326,6.139c-1.126,4.271,4.896,8.726,12.163,8.771
			c3.347-0.057,6.502-0.942,9.37-2.242c2.804-1.398,5.289-3.256,7.479-5.446c2.109-2.268,3.913-4.877,5.195-7.892
			c1.216-3.04,2.006-6.446,1.747-10.032C626.042,811.196,625.067,807.841,623.326,804.925z M610.649,819.435
			c-0.379,1.261-1.126,2.505-1.96,3.728c-0.921,1.166-2.013,2.215-3.206,3.054c-1.199,0.79-2.452,1.335-3.678,1.653
			c-1.231,0.177,0.045,0.058-3.839-0.138c3.309-7.525-6.033-5.718-10.963-10.308c0.654-2.114-1.817-2.393,4.05-7.854
			c1.108-0.706,2.236-1.312,3.617-1.605c2.63-0.769,5.895-0.6,8.683,0.394C607.154,810.303,611.853,811.952,610.649,819.435z"/>
	</g>
</g>
</svg>
